<mxfile host="app.diagrams.net" modified="2024-05-11T19:54:49.595Z" agent="Mozilla/5.0 (Windows NT 10.0; Win64; x64) AppleWebKit/537.36 (KHTML, like Gecko) Chrome/124.0.0.0 Safari/537.36" etag="oMjGi0S2OiGFK8kolobp" version="24.4.0" type="device">
  <diagram name="Страница — 1" id="QHg7ETaDiuwzk6v2uIU3">
    <mxGraphModel dx="1434" dy="746" grid="1" gridSize="10" guides="1" tooltips="1" connect="1" arrows="1" fold="1" page="1" pageScale="1" pageWidth="827" pageHeight="1169" math="0" shadow="0">
      <root>
        <mxCell id="0" />
        <mxCell id="1" parent="0" />
        <mxCell id="zbmWzVaNN1RUx1CBlb_E-2" value="Пользователь" style="shape=umlActor;verticalLabelPosition=bottom;verticalAlign=top;html=1;outlineConnect=0;" parent="1" vertex="1">
          <mxGeometry x="100" y="270" width="30" height="60" as="geometry" />
        </mxCell>
        <mxCell id="zbmWzVaNN1RUx1CBlb_E-3" value="" style="endArrow=none;html=1;rounded=0;entryX=0;entryY=0.5;entryDx=0;entryDy=0;" parent="1" target="zbmWzVaNN1RUx1CBlb_E-11" edge="1">
          <mxGeometry width="50" height="50" relative="1" as="geometry">
            <mxPoint x="130" y="290" as="sourcePoint" />
            <mxPoint x="270" y="110" as="targetPoint" />
          </mxGeometry>
        </mxCell>
        <mxCell id="zbmWzVaNN1RUx1CBlb_E-11" value="Отфильтровать товары по категории" style="ellipse;whiteSpace=wrap;html=1;" parent="1" vertex="1">
          <mxGeometry x="230" y="30" width="140" height="80" as="geometry" />
        </mxCell>
        <mxCell id="-tIVfijPpy3Wzi3QWecl-1" value="" style="endArrow=none;html=1;rounded=0;entryX=0;entryY=0.5;entryDx=0;entryDy=0;" parent="1" target="-tIVfijPpy3Wzi3QWecl-2" edge="1">
          <mxGeometry width="50" height="50" relative="1" as="geometry">
            <mxPoint x="130" y="290" as="sourcePoint" />
            <mxPoint x="280" y="510" as="targetPoint" />
          </mxGeometry>
        </mxCell>
        <mxCell id="-tIVfijPpy3Wzi3QWecl-2" value="Отфильтровать товары по введеной строке в окне поиска" style="ellipse;whiteSpace=wrap;html=1;" parent="1" vertex="1">
          <mxGeometry x="230" y="140" width="140" height="80" as="geometry" />
        </mxCell>
        <mxCell id="-tIVfijPpy3Wzi3QWecl-5" value="Отстортировать товары по цене" style="ellipse;whiteSpace=wrap;html=1;" parent="1" vertex="1">
          <mxGeometry x="430" y="140" width="120" height="80" as="geometry" />
        </mxCell>
        <mxCell id="-tIVfijPpy3Wzi3QWecl-6" value="" style="endArrow=none;html=1;rounded=0;entryX=0;entryY=0.5;entryDx=0;entryDy=0;exitX=1;exitY=0.5;exitDx=0;exitDy=0;" parent="1" source="zbmWzVaNN1RUx1CBlb_E-11" target="-tIVfijPpy3Wzi3QWecl-5" edge="1">
          <mxGeometry width="50" height="50" relative="1" as="geometry">
            <mxPoint x="390" y="210" as="sourcePoint" />
            <mxPoint x="440" y="160" as="targetPoint" />
          </mxGeometry>
        </mxCell>
        <mxCell id="-tIVfijPpy3Wzi3QWecl-8" value="" style="endArrow=none;html=1;rounded=0;entryX=0;entryY=0.5;entryDx=0;entryDy=0;exitX=1;exitY=0.5;exitDx=0;exitDy=0;" parent="1" source="-tIVfijPpy3Wzi3QWecl-2" target="-tIVfijPpy3Wzi3QWecl-5" edge="1">
          <mxGeometry width="50" height="50" relative="1" as="geometry">
            <mxPoint x="410" y="170" as="sourcePoint" />
            <mxPoint x="510" y="160" as="targetPoint" />
          </mxGeometry>
        </mxCell>
        <mxCell id="-tIVfijPpy3Wzi3QWecl-10" value="" style="endArrow=none;html=1;rounded=0;entryX=0;entryY=0.5;entryDx=0;entryDy=0;" parent="1" target="-tIVfijPpy3Wzi3QWecl-11" edge="1">
          <mxGeometry width="50" height="50" relative="1" as="geometry">
            <mxPoint x="130" y="290" as="sourcePoint" />
            <mxPoint x="284" y="710" as="targetPoint" />
          </mxGeometry>
        </mxCell>
        <mxCell id="-tIVfijPpy3Wzi3QWecl-11" value="Добавить товар в базу данных" style="ellipse;whiteSpace=wrap;html=1;" parent="1" vertex="1">
          <mxGeometry x="230" y="250" width="140" height="80" as="geometry" />
        </mxCell>
        <mxCell id="-tIVfijPpy3Wzi3QWecl-35" value="Зайти на страницу товара" style="ellipse;whiteSpace=wrap;html=1;" parent="1" vertex="1">
          <mxGeometry x="570" y="30" width="120" height="80" as="geometry" />
        </mxCell>
        <mxCell id="-tIVfijPpy3Wzi3QWecl-36" value="" style="endArrow=none;html=1;rounded=0;entryX=0;entryY=0.5;entryDx=0;entryDy=0;exitX=1;exitY=0.5;exitDx=0;exitDy=0;" parent="1" source="-tIVfijPpy3Wzi3QWecl-5" target="-tIVfijPpy3Wzi3QWecl-35" edge="1">
          <mxGeometry width="50" height="50" relative="1" as="geometry">
            <mxPoint x="600" y="160" as="sourcePoint" />
            <mxPoint x="700" y="160" as="targetPoint" />
          </mxGeometry>
        </mxCell>
        <mxCell id="nyOWRCW-mnXuKHqSV3sA-1" value="Удалить товар из базы данных" style="ellipse;whiteSpace=wrap;html=1;" parent="1" vertex="1">
          <mxGeometry x="707" y="10" width="120" height="80" as="geometry" />
        </mxCell>
        <mxCell id="nyOWRCW-mnXuKHqSV3sA-2" value="" style="endArrow=none;html=1;rounded=0;entryX=0;entryY=0.5;entryDx=0;entryDy=0;exitX=1;exitY=0.5;exitDx=0;exitDy=0;" parent="1" source="-tIVfijPpy3Wzi3QWecl-35" target="nyOWRCW-mnXuKHqSV3sA-1" edge="1">
          <mxGeometry width="50" height="50" relative="1" as="geometry">
            <mxPoint x="820" y="205" as="sourcePoint" />
            <mxPoint x="897" y="265" as="targetPoint" />
          </mxGeometry>
        </mxCell>
        <mxCell id="nyOWRCW-mnXuKHqSV3sA-3" value="" style="endArrow=none;html=1;rounded=0;entryX=0;entryY=0.5;entryDx=0;entryDy=0;exitX=1;exitY=0.5;exitDx=0;exitDy=0;" parent="1" source="zbmWzVaNN1RUx1CBlb_E-11" target="-tIVfijPpy3Wzi3QWecl-35" edge="1">
          <mxGeometry width="50" height="50" relative="1" as="geometry">
            <mxPoint x="450" y="40" as="sourcePoint" />
            <mxPoint x="550" y="140" as="targetPoint" />
          </mxGeometry>
        </mxCell>
        <mxCell id="nyOWRCW-mnXuKHqSV3sA-4" value="" style="endArrow=none;html=1;rounded=0;entryX=0;entryY=0.5;entryDx=0;entryDy=0;exitX=1;exitY=0.5;exitDx=0;exitDy=0;" parent="1" source="-tIVfijPpy3Wzi3QWecl-2" target="-tIVfijPpy3Wzi3QWecl-35" edge="1">
          <mxGeometry width="50" height="50" relative="1" as="geometry">
            <mxPoint x="430" y="80" as="sourcePoint" />
            <mxPoint x="530" y="180" as="targetPoint" />
          </mxGeometry>
        </mxCell>
        <mxCell id="nyOWRCW-mnXuKHqSV3sA-5" value="Обновить информацию о товаре" style="ellipse;whiteSpace=wrap;html=1;" parent="1" vertex="1">
          <mxGeometry x="707" y="110" width="120" height="80" as="geometry" />
        </mxCell>
        <mxCell id="nyOWRCW-mnXuKHqSV3sA-6" value="" style="endArrow=none;html=1;rounded=0;entryX=0;entryY=0.5;entryDx=0;entryDy=0;exitX=1;exitY=0.5;exitDx=0;exitDy=0;" parent="1" source="-tIVfijPpy3Wzi3QWecl-35" target="nyOWRCW-mnXuKHqSV3sA-5" edge="1">
          <mxGeometry width="50" height="50" relative="1" as="geometry">
            <mxPoint x="690" y="150" as="sourcePoint" />
            <mxPoint x="897" y="365" as="targetPoint" />
          </mxGeometry>
        </mxCell>
      </root>
    </mxGraphModel>
  </diagram>
</mxfile>
